# xmcd CD database file
#
# Track frame offsets:
#	150
#	16000
#	28340
#	44517
#	58097
#	69010
#	80440
#	99335
#	113162
#	123517
#	133312
#	143687
#
# Disc length: 2063 seconds
#
# Revision: 0
# Processed by: cddbd v1.5PL3 Copyright (c) Steve Scherf et al.
# Submitted via: CDex 1.51
#
DISCID=a0080d0c
DTITLE=River Band - Hear Again (Country Music Through The Ears
DYEAR=1900
DGENRE=Country
TTITLE0=Get Gone
TTITLE1=Close Up The Honkey Tonks
TTITLE2=The Duell
TTITLE3=On The Other Hand
TTITLE4=Until The Money Is Gone
TTITLE5=Stay Out Of My Arms
TTITLE6=Sweet Sixteen
TTITLE7=Right Of The Top Of My Heart
TTITLE8=I've Just Seen A Face
TTITLE9=Shut Up And Drink Your Beer
TTITLE10=Wild At Heart
TTITLE11=Arizona
EXTD=
EXTT0=
EXTT1=
EXTT2=
EXTT3=
EXTT4=
EXTT5=
EXTT6=
EXTT7=
EXTT8=
EXTT9=
EXTT10=
EXTT11=
PLAYORDER=
